STARTFONT 2.1
COMMENT
COMMENT Converted from OpenType font "CircularStd-Bold.otf" by "otf2bdf 3.0".
COMMENT
FONT -FreeType-Circular Std Bold-Medium-R-Normal--17-120-100-100-P-88-ISO10646-1
SIZE 12 100 100
FONTBOUNDINGBOX 27 20 -1 -4
STARTPROPERTIES 19
FOUNDRY "FreeType"
FAMILY_NAME "Circular Std Bold"
WEIGHT_NAME "Medium"
SLANT "R"
SETWIDTH_NAME "Normal"
ADD_STYLE_NAME ""
PIXEL_SIZE 17
POINT_SIZE 120
RESOLUTION_X 100
RESOLUTION_Y 100
SPACING "P"
AVERAGE_WIDTH 88
CHARSET_REGISTRY "ISO10646"
CHARSET_ENCODING "1"
FONT_ASCENT 16
FONT_DESCENT 4
COPYRIGHT "Generated in 2013 by FontLab Studio. Copyright info pending."
_OTF_FONTFILE "CircularStd-Bold.otf"
_OTF_PSNAME "CircularStd-Bold"
ENDPROPERTIES
CHARS 332
STARTCHAR 0000
ENCODING 0
SWIDTH 0 0
DWIDTH 0 0
BBX 0 0 0 0
BITMAP
ENDCHAR
STARTCHAR 000D
ENCODING 13
SWIDTH 240 0
DWIDTH 4 0
BBX 0 0 0 0
BITMAP
ENDCHAR
STARTCHAR 0020
ENCODING 32
SWIDTH 240 0
DWIDTH 4 0
BBX 0 0 0 0
BITMAP
ENDCHAR
STARTCHAR 0021
ENCODING 33
SWIDTH 360 0
DWIDTH 6 0
BBX 3 12 1 0
BITMAP
E0
60
60
60
60
60
60
60
00
40
E0
60
ENDCHAR
STARTCHAR 0022
ENCODING 34
SWIDTH 420 0
DWIDTH 7 0
BBX 5 5 1 6
BITMAP
D8
D8
D8
D8
90
ENDCHAR
STARTCHAR 0023
ENCODING 35
SWIDTH 720 0
DWIDTH 12 0
BBX 11 11 1 0
BITMAP
1980
1980
1980
7FE0
7FE0
3300
3300
FFC0
FFC0
6600
6600
ENDCHAR
STARTCHAR 0024
ENCODING 36
SWIDTH 600 0
DWIDTH 10 0
BBX 8 15 1 -2
BITMAP
18
18
3E
7E
E3
C0
F8
7E
1F
43
C3
FF
7E
18
18
ENDCHAR
STARTCHAR 0025
ENCODING 37
SWIDTH 840 0
DWIDTH 14 0
BBX 13 11 1 0
BITMAP
7060
F8C0
8980
D980
FB00
2640
0CF0
0D90
1998
31F0
30E0
ENDCHAR
STARTCHAR 0026
ENCODING 38
SWIDTH 720 0
DWIDTH 12 0
BBX 10 12 1 0
BITMAP
3C00
7E00
6600
6600
7E00
3C40
7CC0
EFC0
C780
E780
7FC0
3CC0
ENDCHAR
STARTCHAR 0027
ENCODING 39
SWIDTH 240 0
DWIDTH 4 0
BBX 2 5 1 6
BITMAP
C0
C0
C0
C0
80
ENDCHAR
STARTCHAR 0028
ENCODING 40
SWIDTH 360 0
DWIDTH 6 0
BBX 4 17 1 -3
BITMAP
10
30
60
60
C0
C0
C0
C0
C0
C0
C0
C0
C0
60
60
30
10
ENDCHAR
STARTCHAR 0029
ENCODING 41
SWIDTH 360 0
DWIDTH 6 0
BBX 5 17 0 -3
BITMAP
40
E0
60
30
30
30
18
18
18
18
18
10
30
30
60
E0
40
ENDCHAR
STARTCHAR 002A
ENCODING 42
SWIDTH 480 0
DWIDTH 8 0
BBX 6 7 1 5
BITMAP
30
30
FC
FC
70
F8
48
ENDCHAR
STARTCHAR 002B
ENCODING 43
SWIDTH 600 0
DWIDTH 10 0
BBX 8 8 1 1
BITMAP
18
18
18
FF
FF
18
18
18
ENDCHAR
STARTCHAR 002C
ENCODING 44
SWIDTH 300 0
DWIDTH 5 0
BBX 3 6 1 -3
BITMAP
E0
E0
E0
20
60
C0
ENDCHAR
STARTCHAR 002D
ENCODING 45
SWIDTH 360 0
DWIDTH 6 0
BBX 5 2 1 4
BITMAP
F8
F8
ENDCHAR
STARTCHAR 002E
ENCODING 46
SWIDTH 300 0
DWIDTH 5 0
BBX 3 3 1 0
BITMAP
E0
E0
E0
ENDCHAR
STARTCHAR 002F
ENCODING 47
SWIDTH 480 0
DWIDTH 8 0
BBX 8 12 0 0
BITMAP
03
06
06
0C
0C
18
18
30
30
60
60
C0
ENDCHAR
STARTCHAR 0030
ENCODING 48
SWIDTH 600 0
DWIDTH 10 0
BBX 9 11 1 0
BITMAP
3C00
7F00
E700
C300
C380
C380
C380
C300
E300
7F00
3C00
ENDCHAR
STARTCHAR 0031
ENCODING 49
SWIDTH 420 0
DWIDTH 7 0
BBX 4 11 1 0
BITMAP
30
70
F0
F0
30
30
30
30
30
30
30
ENDCHAR
STARTCHAR 0032
ENCODING 50
SWIDTH 540 0
DWIDTH 9 0
BBX 8 11 1 0
BITMAP
7C
FE
C6
C6
06
0E
3C
70
E0
FF
FF
ENDCHAR
STARTCHAR 0033
ENCODING 51
SWIDTH 540 0
DWIDTH 9 0
BBX 9 11 0 0
BITMAP
7F00
7F00
0600
1C00
1E00
1F00
0380
E380
6300
7F00
3E00
ENDCHAR
STARTCHAR 0034
ENCODING 52
SWIDTH 600 0
DWIDTH 10 0
BBX 9 11 1 0
BITMAP
0E00
1E00
3E00
3600
6600
E600
C600
FF80
FF80
0600
0600
ENDCHAR
STARTCHAR 0035
ENCODING 53
SWIDTH 540 0
DWIDTH 9 0
BBX 8 11 1 0
BITMAP
7E
7E
60
C0
FC
FE
07
47
C7
FE
7C
ENDCHAR
STARTCHAR 0036
ENCODING 54
SWIDTH 600 0
DWIDTH 10 0
BBX 8 11 1 0
BITMAP
1F
3F
70
E0
DE
FF
E3
C3
E3
7F
3C
ENDCHAR
STARTCHAR 0037
ENCODING 55
SWIDTH 480 0
DWIDTH 8 0
BBX 8 11 0 0
BITMAP
FF
FF
07
0E
0C
1C
18
38
30
30
30
ENDCHAR
STARTCHAR 0038
ENCODING 56
SWIDTH 540 0
DWIDTH 9 0
BBX 8 11 1 0
BITMAP
3C
FE
C7
C7
7E
7E
C6
C3
C7
FE
7C
ENDCHAR
STARTCHAR 0039
ENCODING 57
SWIDTH 600 0
DWIDTH 10 0
BBX 8 11 1 0
BITMAP
3C
FE
C7
C7
C7
FF
7B
07
0E
FC
F8
ENDCHAR
STARTCHAR 003A
ENCODING 58
SWIDTH 300 0
DWIDTH 5 0
BBX 3 8 1 0
BITMAP
E0
E0
E0
00
00
E0
E0
E0
ENDCHAR
STARTCHAR 003B
ENCODING 59
SWIDTH 300 0
DWIDTH 5 0
BBX 3 10 1 -2
BITMAP
E0
E0
E0
00
00
00
E0
E0
20
C0
ENDCHAR
STARTCHAR 003C
ENCODING 60
SWIDTH 480 0
DWIDTH 8 0
BBX 7 9 1 0
BITMAP
02
0E
3C
F0
C0
F0
3C
0E
02
ENDCHAR
STARTCHAR 003D
ENCODING 61
SWIDTH 600 0
DWIDTH 10 0
BBX 8 6 1 2
BITMAP
FF
FF
00
00
FF
FF
ENDCHAR
STARTCHAR 003E
ENCODING 62
SWIDTH 480 0
DWIDTH 8 0
BBX 7 9 1 0
BITMAP
80
C0
F0
3C
0E
3C
F0
C0
80
ENDCHAR
STARTCHAR 003F
ENCODING 63
SWIDTH 540 0
DWIDTH 9 0
BBX 7 12 1 0
BITMAP
7C
FE
C6
C6
06
1C
38
30
00
10
30
30
ENDCHAR
STARTCHAR 0040
ENCODING 64
SWIDTH 840 0
DWIDTH 14 0
BBX 12 13 1 -1
BITMAP
0F80
3FC0
6060
CEB0
DF90
9990
91B0
9930
DFE0
C000
6040
3DC0
0F80
ENDCHAR
STARTCHAR 0041
ENCODING 65
SWIDTH 720 0
DWIDTH 12 0
BBX 12 12 0 0
BITMAP
0700
0F00
0F00
1F80
1980
1980
39C0
3FC0
7FE0
6060
6060
E070
ENDCHAR
STARTCHAR 0042
ENCODING 66
SWIDTH 600 0
DWIDTH 10 0
BBX 9 12 1 0
BITMAP
FE00
FF00
E300
E300
E300
FE00
FF00
E300
E380
E300
FF00
FE00
ENDCHAR
STARTCHAR 0043
ENCODING 67
SWIDTH 780 0
DWIDTH 13 0
BBX 11 12 1 0
BITMAP
1F00
3FC0
71E0
E0E0
C000
C000
C000
C000
E0E0
71E0
3FC0
1F00
ENDCHAR
STARTCHAR 0044
ENCODING 68
SWIDTH 720 0
DWIDTH 12 0
BBX 10 12 1 0
BITMAP
FE00
FF80
E3C0
E1C0
E0C0
E0C0
E0C0
E0C0
E1C0
E3C0
FF80
FE00
ENDCHAR
STARTCHAR 0045
ENCODING 69
SWIDTH 600 0
DWIDTH 10 0
BBX 8 12 1 0
BITMAP
FF
FF
E0
E0
E0
FE
FE
E0
E0
E0
FF
FF
ENDCHAR
STARTCHAR 0046
ENCODING 70
SWIDTH 540 0
DWIDTH 9 0
BBX 8 12 1 0
BITMAP
FF
FF
E0
E0
E0
FE
FE
E0
E0
E0
E0
E0
ENDCHAR
STARTCHAR 0047
ENCODING 71
SWIDTH 780 0
DWIDTH 13 0
BBX 11 12 1 0
BITMAP
1F00
3FC0
71E0
E0E0
C000
C000
C7E0
C7E0
E060
70E0
7FE0
1F60
ENDCHAR
STARTCHAR 0048
ENCODING 72
SWIDTH 720 0
DWIDTH 12 0
BBX 10 12 1 0
BITMAP
E0C0
E0C0
E0C0
E0C0
E0C0
FFC0
FFC0
E0C0
E0C0
E0C0
E0C0
E0C0
ENDCHAR
STARTCHAR 0049
ENCODING 73
SWIDTH 300 0
DWIDTH 5 0
BBX 3 12 1 0
BITMAP
E0
E0
E0
E0
E0
E0
E0
E0
E0
E0
E0
E0
ENDCHAR
STARTCHAR 004A
ENCODING 74
SWIDTH 540 0
DWIDTH 9 0
BBX 8 12 0 0
BITMAP
03
03
03
03
03
03
03
E3
E3
67
7E
3C
ENDCHAR
STARTCHAR 004B
ENCODING 75
SWIDTH 720 0
DWIDTH 12 0
BBX 10 12 1 0
BITMAP
E1C0
E380
E700
EE00
FC00
FC00
FE00
FE00
E700
E380
E180
E1C0
ENDCHAR
STARTCHAR 004C
ENCODING 76
SWIDTH 540 0
DWIDTH 9 0
BBX 8 12 1 0
BITMAP
E0
E0
E0
E0
E0
E0
E0
E0
E0
E0
FF
FF
ENDCHAR
STARTCHAR 004D
ENCODING 77
SWIDTH 960 0
DWIDTH 16 0
BBX 14 12 1 0
BITMAP
F03C
F03C
F07C
F87C
F87C
FCDC
ECDC
EDDC
E79C
E79C
E71C
E31C
ENDCHAR
STARTCHAR 004E
ENCODING 78
SWIDTH 780 0
DWIDTH 13 0
BBX 10 12 1 0
BITMAP
F0C0
F0C0
F8C0
F8C0
FCC0
EEC0
E6C0
E7C0
E3C0
E3C0
E1C0
E0C0
ENDCHAR
STARTCHAR 004F
ENCODING 79
SWIDTH 780 0
DWIDTH 13 0
BBX 12 12 1 0
BITMAP
1F00
3FC0
71E0
E060
C070
C070
C070
C070
E060
71E0
3FC0
1F00
ENDCHAR
STARTCHAR 0050
ENCODING 80
SWIDTH 600 0
DWIDTH 10 0
BBX 9 12 1 0
BITMAP
FE00
FF00
E380
E380
E380
FF00
FE00
E000
E000
E000
E000
E000
ENDCHAR
STARTCHAR 0051
ENCODING 81
SWIDTH 780 0
DWIDTH 13 0
BBX 12 13 1 -1
BITMAP
1F00
3FC0
71E0
E060
C070
C070
C070
C770
E3E0
71E0
3FE0
1F70
0020
ENDCHAR
STARTCHAR 0052
ENCODING 82
SWIDTH 600 0
DWIDTH 10 0
BBX 9 12 1 0
BITMAP
FE00
FF00
E380
E380
E380
FF00
FE00
EE00
E600
E700
E700
E380
ENDCHAR
STARTCHAR 0053
ENCODING 83
SWIDTH 600 0
DWIDTH 10 0
BBX 8 12 1 0
BITMAP
3C
7F
E3
C2
E0
7E
3F
07
C3
E3
FF
3C
ENDCHAR
STARTCHAR 0054
ENCODING 84
SWIDTH 600 0
DWIDTH 10 0
BBX 10 12 0 0
BITMAP
FFC0
FFC0
0C00
0C00
0C00
0C00
0C00
0C00
0C00
0C00
0C00
0C00
ENDCHAR
STARTCHAR 0055
ENCODING 85
SWIDTH 720 0
DWIDTH 12 0
BBX 9 12 1 0
BITMAP
E180
E180
E180
E180
E180
E180
E180
E180
E180
7380
7F00
3E00
ENDCHAR
STARTCHAR 0056
ENCODING 86
SWIDTH 660 0
DWIDTH 11 0
BBX 11 12 0 0
BITMAP
E060
60E0
70C0
70C0
31C0
3980
1980
1B80
1F00
0F00
0E00
0E00
ENDCHAR
STARTCHAR 0057
ENCODING 87
SWIDTH 1020 0
DWIDTH 17 0
BBX 17 12 0 0
BITMAP
E1C380
61C380
61E300
73E300
736700
337600
373600
3E3600
1E3E00
1E3C00
1C1C00
1C1C00
ENDCHAR
STARTCHAR 0058
ENCODING 88
SWIDTH 660 0
DWIDTH 11 0
BBX 10 12 1 0
BITMAP
C1C0
E380
7300
3700
3E00
1C00
1C00
3E00
3700
7300
E380
C1C0
ENDCHAR
STARTCHAR 0059
ENCODING 89
SWIDTH 660 0
DWIDTH 11 0
BBX 10 12 0 0
BITMAP
E0C0
71C0
3180
3B80
1B00
1E00
0E00
0E00
0E00
0E00
0E00
0E00
ENDCHAR
STARTCHAR 005A
ENCODING 90
SWIDTH 660 0
DWIDTH 11 0
BBX 9 12 1 0
BITMAP
FF80
FF80
0380
0700
0E00
1C00
3800
7000
7000
E000
FF80
FF80
ENDCHAR
STARTCHAR 005B
ENCODING 91
SWIDTH 300 0
DWIDTH 5 0
BBX 4 17 1 -3
BITMAP
F0
F0
C0
C0
C0
C0
C0
C0
C0
C0
C0
C0
C0
C0
C0
F0
F0
ENDCHAR
STARTCHAR 005C
ENCODING 92
SWIDTH 480 0
DWIDTH 8 0
BBX 8 12 0 0
BITMAP
C0
60
60
30
30
18
18
0C
0C
06
06
03
ENDCHAR
STARTCHAR 005D
ENCODING 93
SWIDTH 300 0
DWIDTH 5 0
BBX 4 17 0 -3
BITMAP
F0
F0
30
30
30
30
30
30
30
30
30
30
30
30
30
F0
F0
ENDCHAR
STARTCHAR 005E
ENCODING 94
SWIDTH 540 0
DWIDTH 9 0
BBX 7 6 1 6
BITMAP
38
38
6C
6C
C6
C6
ENDCHAR
STARTCHAR 005F
ENCODING 95
SWIDTH 540 0
DWIDTH 9 0
BBX 9 2 0 -2
BITMAP
FF80
FF80
ENDCHAR
STARTCHAR 0060
ENCODING 96
SWIDTH 300 0
DWIDTH 5 0
BBX 3 3 1 9
BITMAP
C0
60
60
ENDCHAR
STARTCHAR 0061
ENCODING 97
SWIDTH 540 0
DWIDTH 9 0
BBX 7 8 1 0
BITMAP
7C
FE
C6
1E
FE
C6
CE
76
ENDCHAR
STARTCHAR 0062
ENCODING 98
SWIDTH 600 0
DWIDTH 10 0
BBX 9 12 1 0
BITMAP
C000
C000
C000
C000
DE00
FF00
E300
C380
C380
E300
FF00
DE00
ENDCHAR
STARTCHAR 0063
ENCODING 99
SWIDTH 540 0
DWIDTH 9 0
BBX 8 8 1 0
BITMAP
3C
FE
C7
C0
C0
C7
7E
3C
ENDCHAR
STARTCHAR 0064
ENCODING 100
SWIDTH 600 0
DWIDTH 10 0
BBX 8 12 1 0
BITMAP
03
03
03
03
3B
FF
C7
C3
C3
C7
FF
3B
ENDCHAR
STARTCHAR 0065
ENCODING 101
SWIDTH 540 0
DWIDTH 9 0
BBX 8 8 1 0
BITMAP
3C
FE
C6
FF
FF
C6
FE
3C
ENDCHAR
STARTCHAR 0066
ENCODING 102
SWIDTH 360 0
DWIDTH 6 0
BBX 6 12 0 0
BITMAP
1C
3C
30
30
FC
FC
30
30
30
30
30
30
ENDCHAR
STARTCHAR 0067
ENCODING 103
SWIDTH 600 0
DWIDTH 10 0
BBX 8 12 1 -4
BITMAP
3B
FF
C7
C3
C3
C7
FF
7B
43
C7
FE
7C
ENDCHAR
STARTCHAR 0068
ENCODING 104
SWIDTH 600 0
DWIDTH 10 0
BBX 8 12 1 0
BITMAP
C0
C0
C0
C0
DC
FE
E7
C7
C7
C7
C7
C7
ENDCHAR
STARTCHAR 0069
ENCODING 105
SWIDTH 300 0
DWIDTH 5 0
BBX 3 12 1 0
BITMAP
C0
E0
40
00
C0
C0
C0
C0
C0
C0
C0
C0
ENDCHAR
STARTCHAR 006A
ENCODING 106
SWIDTH 300 0
DWIDTH 5 0
BBX 4 16 0 -4
BITMAP
60
70
20
00
60
60
60
60
60
60
60
60
60
60
E0
C0
ENDCHAR
STARTCHAR 006B
ENCODING 107
SWIDTH 540 0
DWIDTH 9 0
BBX 8 12 1 0
BITMAP
C0
C0
C0
C0
C7
CE
DC
F8
FC
EC
CE
C7
ENDCHAR
STARTCHAR 006C
ENCODING 108
SWIDTH 300 0
DWIDTH 5 0
BBX 2 12 1 0
BITMAP
C0
C0
C0
C0
C0
C0
C0
C0
C0
C0
C0
C0
ENDCHAR
STARTCHAR 006D
ENCODING 109
SWIDTH 900 0
DWIDTH 15 0
BBX 13 8 1 0
BITMAP
DCF0
FFF0
E738
C718
C718
C718
C718
C718
ENDCHAR
STARTCHAR 006E
ENCODING 110
SWIDTH 600 0
DWIDTH 10 0
BBX 8 8 1 0
BITMAP
DC
FE
E7
C7
C7
C7
C7
C7
ENDCHAR
STARTCHAR 006F
ENCODING 111
SWIDTH 600 0
DWIDTH 10 0
BBX 8 8 1 0
BITMAP
3C
FE
C7
C3
C3
C7
FE
3C
ENDCHAR
STARTCHAR 0070
ENCODING 112
SWIDTH 600 0
DWIDTH 10 0
BBX 9 12 1 -4
BITMAP
DE00
FF00
E300
C380
C380
E300
FF00
DE00
C000
C000
C000
C000
ENDCHAR
STARTCHAR 0071
ENCODING 113
SWIDTH 600 0
DWIDTH 10 0
BBX 8 12 1 -4
BITMAP
3B
FF
C7
C3
C3
C7
FF
3B
03
03
03
03
ENDCHAR
STARTCHAR 0072
ENCODING 114
SWIDTH 420 0
DWIDTH 7 0
BBX 5 8 1 0
BITMAP
D8
F8
E0
C0
C0
C0
C0
C0
ENDCHAR
STARTCHAR 0073
ENCODING 115
SWIDTH 480 0
DWIDTH 8 0
BBX 6 8 1 0
BITMAP
78
FC
C8
F8
7C
8C
FC
78
ENDCHAR
STARTCHAR 0074
ENCODING 116
SWIDTH 360 0
DWIDTH 6 0
BBX 6 10 0 0
BITMAP
30
30
FC
FC
30
30
30
30
3C
1C
ENDCHAR
STARTCHAR 0075
ENCODING 117
SWIDTH 600 0
DWIDTH 10 0
BBX 8 8 1 0
BITMAP
C7
C7
C7
C7
C7
E7
FF
7F
ENDCHAR
STARTCHAR 0076
ENCODING 118
SWIDTH 540 0
DWIDTH 9 0
BBX 9 8 0 0
BITMAP
E380
6300
7300
3700
3600
3E00
1C00
1C00
ENDCHAR
STARTCHAR 0077
ENCODING 119
SWIDTH 840 0
DWIDTH 14 0
BBX 13 8 0 0
BITMAP
E318
6798
6798
77B8
3CF0
3CF0
3CF0
1860
ENDCHAR
STARTCHAR 0078
ENCODING 120
SWIDTH 540 0
DWIDTH 9 0
BBX 7 8 1 0
BITMAP
C6
EE
7C
38
38
7C
EE
C6
ENDCHAR
STARTCHAR 0079
ENCODING 121
SWIDTH 540 0
DWIDTH 9 0
BBX 9 12 0 -4
BITMAP
E180
6380
7300
3700
3E00
1E00
1C00
0C00
1C00
1800
3800
3000
ENDCHAR
STARTCHAR 007A
ENCODING 122
SWIDTH 480 0
DWIDTH 8 0
BBX 6 8 1 0
BITMAP
FC
FC
1C
38
70
E0
FC
FC
ENDCHAR
STARTCHAR 007B
ENCODING 123
SWIDTH 360 0
DWIDTH 6 0
BBX 5 17 1 -3
BITMAP
18
38
30
60
60
60
60
60
C0
E0
60
60
60
60
30
38
18
ENDCHAR
STARTCHAR 007C
ENCODING 124
SWIDTH 300 0
DWIDTH 5 0
BBX 2 17 1 -3
BITMAP
C0
C0
C0
C0
C0
C0
C0
C0
C0
C0
C0
C0
C0
C0
C0
C0
C0
ENDCHAR
STARTCHAR 007D
ENCODING 125
SWIDTH 360 0
DWIDTH 6 0
BBX 6 17 0 -3
BITMAP
C0
E0
30
30
30
30
30
30
1C
1C
30
30
30
30
30
E0
C0
ENDCHAR
STARTCHAR 007E
ENCODING 126
SWIDTH 600 0
DWIDTH 10 0
BBX 8 3 1 3
BITMAP
70
FF
8E
ENDCHAR
STARTCHAR 00A0
ENCODING 160
SWIDTH 240 0
DWIDTH 4 0
BBX 0 0 0 0
BITMAP
ENDCHAR
STARTCHAR 00A1
ENCODING 161
SWIDTH 300 0
DWIDTH 5 0
BBX 3 12 1 -4
BITMAP
E0
E0
40
00
40
40
60
E0
E0
E0
E0
E0
ENDCHAR
STARTCHAR 00A2
ENCODING 162
SWIDTH 540 0
DWIDTH 9 0
BBX 7 11 1 0
BITMAP
18
18
7E
E6
C4
C0
C0
E6
7E
18
18
ENDCHAR
STARTCHAR 00A3
ENCODING 163
SWIDTH 600 0
DWIDTH 10 0
BBX 9 11 1 0
BITMAP
3C00
7E00
6300
6000
6000
FC00
FC00
3000
6380
FF00
FE00
ENDCHAR
STARTCHAR 00A4
ENCODING 164
SWIDTH 600 0
DWIDTH 10 0
BBX 8 8 1 0
BITMAP
82
FF
7E
C2
C2
7E
FF
82
ENDCHAR
STARTCHAR 00A5
ENCODING 165
SWIDTH 600 0
DWIDTH 10 0
BBX 9 11 1 0
BITMAP
C380
E300
6600
7600
FF00
FF00
1800
FF00
FF00
1800
1800
ENDCHAR
STARTCHAR 00A6
ENCODING 166
SWIDTH 300 0
DWIDTH 5 0
BBX 2 17 1 -3
BITMAP
C0
C0
C0
C0
C0
C0
C0
00
00
00
C0
C0
C0
C0
C0
C0
C0
ENDCHAR
STARTCHAR 00A7
ENCODING 167
SWIDTH 540 0
DWIDTH 9 0
BBX 7 16 1 -4
BITMAP
3C
7E
E6
C0
F0
7C
7E
C6
E6
7E
3C
0E
46
E6
7E
38
ENDCHAR
STARTCHAR 00A8
ENCODING 168
SWIDTH 420 0
DWIDTH 7 0
BBX 6 2 0 9
BITMAP
EC
6C
ENDCHAR
STARTCHAR 00A9
ENCODING 169
SWIDTH 840 0
DWIDTH 14 0
BBX 12 12 1 0
BITMAP
1F00
31C0
6060
CF20
9FB0
9030
9030
9FB0
CF20
6060
31C0
1F00
ENDCHAR
STARTCHAR 00AA
ENCODING 170
SWIDTH 420 0
DWIDTH 7 0
BBX 5 6 1 5
BITMAP
70
D8
38
D8
D8
E8
ENDCHAR
STARTCHAR 00AB
ENCODING 171
SWIDTH 540 0
DWIDTH 9 0
BBX 7 6 1 2
BITMAP
66
6C
DC
DC
6C
66
ENDCHAR
STARTCHAR 00AC
ENCODING 172
SWIDTH 600 0
DWIDTH 10 0
BBX 8 5 1 2
BITMAP
FF
FF
03
03
03
ENDCHAR
STARTCHAR 00AD
ENCODING 173
SWIDTH 360 0
DWIDTH 6 0
BBX 5 2 1 4
BITMAP
F8
F8
ENDCHAR
STARTCHAR 00AE
ENCODING 174
SWIDTH 840 0
DWIDTH 14 0
BBX 12 12 1 0
BITMAP
1F00
31C0
6060
CF20
8930
8930
8F30
8B30
CB20
6060
31C0
1F00
ENDCHAR
STARTCHAR 00AF
ENCODING 175
SWIDTH 360 0
DWIDTH 6 0
BBX 5 2 0 9
BITMAP
F8
F8
ENDCHAR
STARTCHAR 00B0
ENCODING 176
SWIDTH 360 0
DWIDTH 6 0
BBX 6 6 0 5
BITMAP
38
7C
CC
CC
78
10
ENDCHAR
STARTCHAR 00B1
ENCODING 177
SWIDTH 600 0
DWIDTH 10 0
BBX 8 8 1 1
BITMAP
18
18
FF
FF
18
18
FF
FF
ENDCHAR
STARTCHAR 00B2
ENCODING 178
SWIDTH 420 0
DWIDTH 7 0
BBX 5 6 1 6
BITMAP
70
D8
98
70
E0
F8
ENDCHAR
STARTCHAR 00B3
ENCODING 179
SWIDTH 420 0
DWIDTH 7 0
BBX 5 6 1 6
BITMAP
F8
18
70
18
98
F8
ENDCHAR
STARTCHAR 00B4
ENCODING 180
SWIDTH 300 0
DWIDTH 5 0
BBX 3 3 1 9
BITMAP
60
C0
C0
ENDCHAR
STARTCHAR 00B5
ENCODING 181
SWIDTH 600 0
DWIDTH 10 0
BBX 8 12 1 -4
BITMAP
C7
C7
C7
C7
C7
E7
FF
FB
C0
C0
C0
C0
ENDCHAR
STARTCHAR 00B6
ENCODING 182
SWIDTH 660 0
DWIDTH 11 0
BBX 11 16 0 -4
BITMAP
3FE0
7FE0
7D80
FD80
7D80
7D80
3D80
0D80
0D80
0D80
0D80
0D80
0D80
0D80
0D80
0D80
ENDCHAR
STARTCHAR 00B7
ENCODING 183
SWIDTH 300 0
DWIDTH 5 0
BBX 3 3 1 4
BITMAP
E0
E0
E0
ENDCHAR
STARTCHAR 00B8
ENCODING 184
SWIDTH 300 0
DWIDTH 5 0
BBX 4 4 1 -4
BITMAP
40
60
30
E0
ENDCHAR
STARTCHAR 00B9
ENCODING 185
SWIDTH 300 0
DWIDTH 5 0
BBX 3 6 1 6
BITMAP
60
E0
60
60
60
60
ENDCHAR
STARTCHAR 00BA
ENCODING 186
SWIDTH 480 0
DWIDTH 8 0
BBX 6 6 1 5
BITMAP
78
FC
CC
CC
FC
78
ENDCHAR
STARTCHAR 00BB
ENCODING 187
SWIDTH 540 0
DWIDTH 9 0
BBX 7 6 1 2
BITMAP
D8
CC
66
66
EC
D8
ENDCHAR
STARTCHAR 00BC
ENCODING 188
SWIDTH 780 0
DWIDTH 13 0
BBX 12 11 1 0
BITMAP
60C0
E180
E100
6300
6600
6C60
6CE0
1960
3360
33F0
6060
ENDCHAR
STARTCHAR 00BD
ENCODING 189
SWIDTH 840 0
DWIDTH 14 0
BBX 12 11 1 0
BITMAP
60C0
E180
E300
6300
6600
6CE0
0DB0
1830
30E0
3180
61F0
ENDCHAR
STARTCHAR 00BE
ENCODING 190
SWIDTH 900 0
DWIDTH 15 0
BBX 13 11 1 0
BITMAP
F860
1860
70C0
1980
9900
FB30
0670
0CF0
0DB0
19F8
3030
ENDCHAR
STARTCHAR 00BF
ENCODING 191
SWIDTH 480 0
DWIDTH 8 0
BBX 8 12 0 -4
BITMAP
18
1C
08
00
18
38
70
E0
E3
E7
7E
3C
ENDCHAR
STARTCHAR 00C0
ENCODING 192
SWIDTH 720 0
DWIDTH 12 0
BBX 12 15 0 0
BITMAP
1C00
0E00
0000
0700
0F00
0F00
1F80
1980
1980
39C0
3FC0
7FE0
6060
6060
E070
ENDCHAR
STARTCHAR 00C1
ENCODING 193
SWIDTH 720 0
DWIDTH 12 0
BBX 12 15 0 0
BITMAP
0380
0700
0000
0700
0F00
0F00
1F80
1980
1980
39C0
3FC0
7FE0
6060
6060
E070
ENDCHAR
STARTCHAR 00C2
ENCODING 194
SWIDTH 720 0
DWIDTH 12 0
BBX 12 15 0 0
BITMAP
0F00
1B80
0000
0700
0F00
0F00
1F80
1980
1980
39C0
3FC0
7FE0
6060
6060
E070
ENDCHAR
STARTCHAR 00C3
ENCODING 195
SWIDTH 720 0
DWIDTH 12 0
BBX 12 16 0 0
BITMAP
0D80
1F80
1300
0000
0700
0F00
0F00
1F80
1980
1980
39C0
3FC0
7FE0
6060
6060
E070
ENDCHAR
STARTCHAR 00C4
ENCODING 196
SWIDTH 720 0
DWIDTH 12 0
BBX 12 15 0 0
BITMAP
30C0
31C0
0000
0700
0F00
0F00
1F80
1980
1980
39C0
3FC0
7FE0
6060
6060
E070
ENDCHAR
STARTCHAR 00C5
ENCODING 197
SWIDTH 720 0
DWIDTH 12 0
BBX 12 15 0 0
BITMAP
0600
0B00
0900
0F00
0F00
0F00
1F80
1980
1980
39C0
3FC0
7FE0
6060
6060
E070
ENDCHAR
STARTCHAR 00C6
ENCODING 198
SWIDTH 1080 0
DWIDTH 18 0
BBX 17 12 0 0
BITMAP
00FF80
01FF80
03F000
037000
077000
0E7F00
0C7F00
1FF000
3FF000
387000
707F80
E07F80
ENDCHAR
STARTCHAR 00C7
ENCODING 199
SWIDTH 780 0
DWIDTH 13 0
BBX 11 16 1 -4
BITMAP
1F00
3FC0
71C0
E0E0
C000
C000
C000
C000
E060
F0E0
7FC0
3F80
0400
0600
0B00
0E00
ENDCHAR
STARTCHAR 00C8
ENCODING 200
SWIDTH 600 0
DWIDTH 10 0
BBX 8 15 1 0
BITMAP
30
18
00
FF
FF
E0
E0
E0
FE
FE
E0
E0
E0
FF
FF
ENDCHAR
STARTCHAR 00C9
ENCODING 201
SWIDTH 600 0
DWIDTH 10 0
BBX 8 15 1 0
BITMAP
0E
18
00
FF
FF
E0
E0
E0
FE
FE
E0
E0
E0
FF
FF
ENDCHAR
STARTCHAR 00CA
ENCODING 202
SWIDTH 600 0
DWIDTH 10 0
BBX 8 15 1 0
BITMAP
3C
7E
00
FF
FF
E0
E0
E0
FE
FE
E0
E0
E0
FF
FF
ENDCHAR
STARTCHAR 00CB
ENCODING 203
SWIDTH 600 0
DWIDTH 10 0
BBX 8 15 1 0
BITMAP
66
66
00
FF
FF
E0
E0
E0
FE
FE
E0
E0
E0
FF
FF
ENDCHAR
STARTCHAR 00CC
ENCODING 204
SWIDTH 300 0
DWIDTH 5 0
BBX 4 15 0 0
BITMAP
C0
60
00
70
70
70
70
70
70
70
70
70
70
70
70
ENDCHAR
STARTCHAR 00CD
ENCODING 205
SWIDTH 300 0
DWIDTH 5 0
BBX 4 15 1 0
BITMAP
30
60
00
E0
E0
E0
E0
E0
E0
E0
E0
E0
E0
E0
E0
ENDCHAR
STARTCHAR 00CE
ENCODING 206
SWIDTH 300 0
DWIDTH 5 0
BBX 5 15 0 0
BITMAP
70
D8
00
70
70
70
70
70
70
70
70
70
70
70
70
ENDCHAR
STARTCHAR 00CF
ENCODING 207
SWIDTH 300 0
DWIDTH 5 0
BBX 5 15 0 0
BITMAP
D8
D8
00
70
70
70
70
70
70
70
70
70
70
70
70
ENDCHAR
STARTCHAR 00D0
ENCODING 208
SWIDTH 720 0
DWIDTH 12 0
BBX 12 12 0 0
BITMAP
3F80
3FC0
30E0
3060
3070
FC70
FC70
3070
3060
30E0
3FC0
3F80
ENDCHAR
STARTCHAR 00D1
ENCODING 209
SWIDTH 780 0
DWIDTH 13 0
BBX 10 16 1 0
BITMAP
1900
1F00
1700
0000
F0C0
F0C0
F8C0
F8C0
FCC0
EEC0
E6C0
E7C0
E3C0
E3C0
E1C0
E0C0
ENDCHAR
STARTCHAR 00D2
ENCODING 210
SWIDTH 780 0
DWIDTH 13 0
BBX 12 15 1 0
BITMAP
1800
0C00
0000
1F00
3FC0
71E0
E060
C070
C070
C070
C070
E060
71E0
3FC0
1F00
ENDCHAR
STARTCHAR 00D3
ENCODING 211
SWIDTH 780 0
DWIDTH 13 0
BBX 12 15 1 0
BITMAP
0300
0600
0000
1F00
3FC0
71E0
E060
C070
C070
C070
C070
E060
71E0
3FC0
1F00
ENDCHAR
STARTCHAR 00D4
ENCODING 212
SWIDTH 780 0
DWIDTH 13 0
BBX 12 15 1 0
BITMAP
0E00
1B00
0000
1F00
3FC0
71E0
E060
C070
C070
C070
C070
E060
71E0
3FC0
1F00
ENDCHAR
STARTCHAR 00D5
ENCODING 213
SWIDTH 780 0
DWIDTH 13 0
BBX 12 15 1 0
BITMAP
1D80
1F00
1300
1F00
3FC0
71E0
E060
C070
C070
C070
C070
E060
71E0
3FC0
1F00
ENDCHAR
STARTCHAR 00D6
ENCODING 214
SWIDTH 780 0
DWIDTH 13 0
BBX 12 15 1 0
BITMAP
3080
31C0
0000
1F00
3FC0
71E0
E060
C070
C070
C070
C070
E060
71E0
3FC0
1F00
ENDCHAR
STARTCHAR 00D7
ENCODING 215
SWIDTH 540 0
DWIDTH 9 0
BBX 8 8 1 1
BITMAP
82
C7
6E
3C
3C
6E
C7
82
ENDCHAR
STARTCHAR 00D8
ENCODING 216
SWIDTH 780 0
DWIDTH 13 0
BBX 12 14 1 -1
BITMAP
0040
1F60
3FE0
71E0
E1E0
C370
C670
CC70
DC70
F860
71E0
7FC0
FF00
4000
ENDCHAR
STARTCHAR 00D9
ENCODING 217
SWIDTH 720 0
DWIDTH 12 0
BBX 9 15 1 0
BITMAP
3800
1C00
0000
E180
E180
E180
E180
E180
E180
E180
E180
E180
7380
7F00
3E00
ENDCHAR
STARTCHAR 00DA
ENCODING 218
SWIDTH 720 0
DWIDTH 12 0
BBX 9 15 1 0
BITMAP
0600
0C00
0000
E180
E180
E180
E180
E180
E180
E180
E180
E180
7380
7F00
3E00
ENDCHAR
STARTCHAR 00DB
ENCODING 219
SWIDTH 720 0
DWIDTH 12 0
BBX 9 15 1 0
BITMAP
1C00
3600
0000
E180
E180
E180
E180
E180
E180
E180
E180
E180
7380
7F00
3E00
ENDCHAR
STARTCHAR 00DC
ENCODING 220
SWIDTH 720 0
DWIDTH 12 0
BBX 9 15 1 0
BITMAP
3300
3300
0000
E180
E180
E180
E180
E180
E180
E180
E180
E180
7380
7F00
3E00
ENDCHAR
STARTCHAR 00DD
ENCODING 221
SWIDTH 660 0
DWIDTH 11 0
BBX 10 15 0 0
BITMAP
0700
0600
0000
E0C0
71C0
3180
3B80
1B00
1E00
0E00
0E00
0E00
0E00
0E00
0E00
ENDCHAR
STARTCHAR 00DE
ENCODING 222
SWIDTH 600 0
DWIDTH 10 0
BBX 9 12 1 0
BITMAP
E000
E000
FE00
FF00
E300
E380
E380
E300
FF00
FE00
E000
E000
ENDCHAR
STARTCHAR 00DF
ENCODING 223
SWIDTH 600 0
DWIDTH 10 0
BBX 9 12 1 0
BITMAP
3C00
7E00
E300
C300
C700
CE00
DC00
CF00
C700
C980
DF00
CF00
ENDCHAR
STARTCHAR 00E0
ENCODING 224
SWIDTH 540 0
DWIDTH 9 0
BBX 7 11 1 0
BITMAP
60
30
00
7C
FE
C6
1E
FE
C6
CE
76
ENDCHAR
STARTCHAR 00E1
ENCODING 225
SWIDTH 540 0
DWIDTH 9 0
BBX 7 11 1 0
BITMAP
1C
18
00
7C
FE
C6
1E
FE
C6
CE
76
ENDCHAR
STARTCHAR 00E2
ENCODING 226
SWIDTH 540 0
DWIDTH 9 0
BBX 7 11 1 0
BITMAP
38
6C
00
7C
FE
C6
1E
FE
C6
CE
76
ENDCHAR
STARTCHAR 00E3
ENCODING 227
SWIDTH 540 0
DWIDTH 9 0
BBX 7 12 1 0
BITMAP
74
7C
5C
00
7C
FE
C6
1E
FE
C6
CE
76
ENDCHAR
STARTCHAR 00E4
ENCODING 228
SWIDTH 540 0
DWIDTH 9 0
BBX 7 11 1 0
BITMAP
6C
6C
00
7C
FE
C6
1E
FE
C6
CE
76
ENDCHAR
STARTCHAR 00E5
ENCODING 229
SWIDTH 540 0
DWIDTH 9 0
BBX 7 12 1 0
BITMAP
38
68
38
00
7C
FE
C6
1E
FE
C6
CE
76
ENDCHAR
STARTCHAR 00E6
ENCODING 230
SWIDTH 900 0
DWIDTH 15 0
BBX 13 8 1 0
BITMAP
7DE0
FFF0
C618
7FF8
F7F8
C618
FFF0
79E0
ENDCHAR
STARTCHAR 00E7
ENCODING 231
SWIDTH 540 0
DWIDTH 9 0
BBX 8 12 1 -4
BITMAP
3C
7E
E7
C0
C0
C2
EE
7E
18
18
2C
38
ENDCHAR
STARTCHAR 00E8
ENCODING 232
SWIDTH 540 0
DWIDTH 9 0
BBX 8 11 1 0
BITMAP
70
30
00
3C
FE
C6
FF
FF
C6
FE
3C
ENDCHAR
STARTCHAR 00E9
ENCODING 233
SWIDTH 540 0
DWIDTH 9 0
BBX 8 11 1 0
BITMAP
0C
18
00
3C
FE
C6
FF
FF
C6
FE
3C
ENDCHAR
STARTCHAR 00EA
ENCODING 234
SWIDTH 540 0
DWIDTH 9 0
BBX 8 11 1 0
BITMAP
38
6C
00
3C
FE
C6
FF
FF
C6
FE
3C
ENDCHAR
STARTCHAR 00EB
ENCODING 235
SWIDTH 540 0
DWIDTH 9 0
BBX 8 11 1 0
BITMAP
6E
6C
00
3C
FE
C6
FF
FF
C6
FE
3C
ENDCHAR
STARTCHAR 00EC
ENCODING 236
SWIDTH 300 0
DWIDTH 5 0
BBX 3 11 0 0
BITMAP
C0
60
00
60
60
60
60
60
60
60
60
ENDCHAR
STARTCHAR 00ED
ENCODING 237
SWIDTH 300 0
DWIDTH 5 0
BBX 4 11 1 0
BITMAP
70
60
00
C0
C0
C0
C0
C0
C0
C0
C0
ENDCHAR
STARTCHAR 00EE
ENCODING 238
SWIDTH 300 0
DWIDTH 5 0
BBX 5 11 0 0
BITMAP
70
D8
00
60
60
60
60
60
60
60
60
ENDCHAR
STARTCHAR 00EF
ENCODING 239
SWIDTH 300 0
DWIDTH 5 0
BBX 5 11 0 0
BITMAP
D8
D8
00
60
60
60
60
60
60
60
60
ENDCHAR
STARTCHAR 00F0
ENCODING 240
SWIDTH 600 0
DWIDTH 10 0
BBX 8 13 1 0
BITMAP
20
7E
1E
3E
06
3F
FF
C7
C3
C3
C7
FE
3C
ENDCHAR
STARTCHAR 00F1
ENCODING 241
SWIDTH 600 0
DWIDTH 10 0
BBX 8 12 1 0
BITMAP
32
7E
4C
00
DC
FE
E7
C7
C7
C7
C7
C7
ENDCHAR
STARTCHAR 00F2
ENCODING 242
SWIDTH 600 0
DWIDTH 10 0
BBX 8 11 1 0
BITMAP
70
18
00
3C
FE
C7
C3
C3
C7
FE
3C
ENDCHAR
STARTCHAR 00F3
ENCODING 243
SWIDTH 600 0
DWIDTH 10 0
BBX 8 11 1 0
BITMAP
0C
18
00
3C
FE
C7
C3
C3
C7
FE
3C
ENDCHAR
STARTCHAR 00F4
ENCODING 244
SWIDTH 600 0
DWIDTH 10 0
BBX 8 11 1 0
BITMAP
38
6C
00
3C
FE
C7
C3
C3
C7
FE
3C
ENDCHAR
STARTCHAR 00F5
ENCODING 245
SWIDTH 600 0
DWIDTH 10 0
BBX 8 12 1 0
BITMAP
36
7E
4C
00
3C
FE
C7
C3
C3
C7
FE
3C
ENDCHAR
STARTCHAR 00F6
ENCODING 246
SWIDTH 600 0
DWIDTH 10 0
BBX 8 11 1 0
BITMAP
6E
66
00
3C
FE
C7
C3
C3
C7
FE
3C
ENDCHAR
STARTCHAR 00F7
ENCODING 247
SWIDTH 600 0
DWIDTH 10 0
BBX 8 8 1 1
BITMAP
18
18
00
FF
FF
00
18
18
ENDCHAR
STARTCHAR 00F8
ENCODING 248
SWIDTH 600 0
DWIDTH 10 0
BBX 8 10 1 -1
BITMAP
02
3F
FE
CF
DB
D3
E7
7E
FC
80
ENDCHAR
STARTCHAR 00F9
ENCODING 249
SWIDTH 600 0
DWIDTH 10 0
BBX 8 11 1 0
BITMAP
30
18
00
C7
C7
C7
C7
C7
E7
FF
7F
ENDCHAR
STARTCHAR 00FA
ENCODING 250
SWIDTH 600 0
DWIDTH 10 0
BBX 8 11 1 0
BITMAP
0C
18
00
C7
C7
C7
C7
C7
E7
FF
7F
ENDCHAR
STARTCHAR 00FB
ENCODING 251
SWIDTH 600 0
DWIDTH 10 0
BBX 8 11 1 0
BITMAP
38
6C
00
C7
C7
C7
C7
C7
E7
FF
7F
ENDCHAR
STARTCHAR 00FC
ENCODING 252
SWIDTH 600 0
DWIDTH 10 0
BBX 8 11 1 0
BITMAP
66
66
00
C7
C7
C7
C7
C7
E7
FF
7F
ENDCHAR
STARTCHAR 00FD
ENCODING 253
SWIDTH 540 0
DWIDTH 9 0
BBX 9 15 0 -4
BITMAP
0600
0C00
0000
E180
6380
7300
3700
3E00
1E00
1C00
0C00
1C00
1800
3800
3000
ENDCHAR
STARTCHAR 00FE
ENCODING 254
SWIDTH 600 0
DWIDTH 10 0
BBX 9 16 1 -4
BITMAP
C000
C000
C000
C000
DE00
FF00
E300
C380
C380
E300
FF00
DE00
C000
C000
C000
C000
ENDCHAR
STARTCHAR 00FF
ENCODING 255
SWIDTH 540 0
DWIDTH 9 0
BBX 9 15 0 -4
BITMAP
3700
3600
0000
E180
6380
7300
3700
3E00
1E00
1C00
0C00
1C00
1800
3800
3000
ENDCHAR
STARTCHAR 0131
ENCODING 305
SWIDTH 300 0
DWIDTH 5 0
BBX 2 8 1 0
BITMAP
C0
C0
C0
C0
C0
C0
C0
C0
ENDCHAR
STARTCHAR 0141
ENCODING 321
SWIDTH 600 0
DWIDTH 10 0
BBX 9 12 0 0
BITMAP
3000
3000
3000
3000
3E00
3C00
F000
F000
3000
3000
3F80
3F80
ENDCHAR
STARTCHAR 0142
ENCODING 322
SWIDTH 300 0
DWIDTH 5 0
BBX 5 12 0 0
BITMAP
30
30
30
30
30
38
F0
F0
30
30
30
30
ENDCHAR
STARTCHAR 0152
ENCODING 338
SWIDTH 1140 0
DWIDTH 19 0
BBX 17 12 1 0
BITMAP
1F7F80
3FFF80
70F000
E07000
C07000
C07F00
C07F00
C07000
E07000
70F000
3FFF80
1F7F80
ENDCHAR
STARTCHAR 0153
ENCODING 339
SWIDTH 960 0
DWIDTH 16 0
BBX 14 8 1 0
BITMAP
3CF0
FFF8
C70C
C3FC
C3FC
C78C
7FF8
3CF0
ENDCHAR
STARTCHAR 0160
ENCODING 352
SWIDTH 600 0
DWIDTH 10 0
BBX 8 15 1 0
BITMAP
76
3C
00
3C
7F
E3
C2
E0
7E
3F
07
C3
E3
FF
3C
ENDCHAR
STARTCHAR 0161
ENCODING 353
SWIDTH 480 0
DWIDTH 8 0
BBX 6 11 1 0
BITMAP
D8
70
00
78
FC
C8
F8
7C
8C
FC
78
ENDCHAR
STARTCHAR 0178
ENCODING 376
SWIDTH 660 0
DWIDTH 11 0
BBX 10 15 0 0
BITMAP
1B00
3B80
0000
E0C0
71C0
3180
3B80
1B00
1E00
0E00
0E00
0E00
0E00
0E00
0E00
ENDCHAR
STARTCHAR 017D
ENCODING 381
SWIDTH 660 0
DWIDTH 11 0
BBX 9 15 1 0
BITMAP
3600
1C00
0000
FF80
FF80
0380
0700
0E00
1C00
3800
7000
7000
E000
FF80
FF80
ENDCHAR
STARTCHAR 017E
ENCODING 382
SWIDTH 480 0
DWIDTH 8 0
BBX 6 11 1 0
BITMAP
4C
78
00
FC
FC
1C
38
70
E0
FC
FC
ENDCHAR
STARTCHAR 0192
ENCODING 402
SWIDTH 540 0
DWIDTH 9 0
BBX 9 15 -1 -3
BITMAP
0380
0780
0600
0600
1F80
1F80
0C00
0C00
0C00
1C00
1C00
1800
1800
F800
F000
ENDCHAR
STARTCHAR 02C6
ENCODING 710
SWIDTH 420 0
DWIDTH 7 0
BBX 5 3 1 9
BITMAP
70
F0
D8
ENDCHAR
STARTCHAR 02C7
ENCODING 711
SWIDTH 420 0
DWIDTH 7 0
BBX 5 3 1 9
BITMAP
D8
F0
70
ENDCHAR
STARTCHAR 02C9
ENCODING 713
SWIDTH 360 0
DWIDTH 6 0
BBX 5 2 0 9
BITMAP
F8
F8
ENDCHAR
STARTCHAR 02D8
ENCODING 728
SWIDTH 360 0
DWIDTH 6 0
BBX 6 3 0 9
BITMAP
CC
7C
78
ENDCHAR
STARTCHAR 02D9
ENCODING 729
SWIDTH 180 0
DWIDTH 3 0
BBX 3 3 0 9
BITMAP
60
E0
60
ENDCHAR
STARTCHAR 02DA
ENCODING 730
SWIDTH 300 0
DWIDTH 5 0
BBX 4 4 0 9
BITMAP
70
D0
D0
70
ENDCHAR
STARTCHAR 02DB
ENCODING 731
SWIDTH 240 0
DWIDTH 4 0
BBX 3 4 0 -4
BITMAP
60
C0
C0
60
ENDCHAR
STARTCHAR 02DC
ENCODING 732
SWIDTH 420 0
DWIDTH 7 0
BBX 6 3 0 9
BITMAP
64
FC
D8
ENDCHAR
STARTCHAR 02DD
ENCODING 733
SWIDTH 420 0
DWIDTH 7 0
BBX 5 3 1 9
BITMAP
D8
F0
B0
ENDCHAR
STARTCHAR 0394
ENCODING 916
SWIDTH 720 0
DWIDTH 12 0
BBX 11 12 0 0
BITMAP
0E00
0F00
0F00
1B00
1B80
3980
3180
31C0
70C0
60E0
7FE0
FFE0
ENDCHAR
STARTCHAR 03A9
ENCODING 937
SWIDTH 780 0
DWIDTH 13 0
BBX 11 12 1 0
BITMAP
1F00
7FC0
71C0
E0E0
C060
C060
C060
E0E0
71C0
3B80
FBE0
FBE0
ENDCHAR
STARTCHAR 03BC
ENCODING 956
SWIDTH 600 0
DWIDTH 10 0
BBX 8 12 1 -4
BITMAP
C7
C7
C7
C7
C7
E7
FF
FB
C0
C0
C0
C0
ENDCHAR
STARTCHAR 03C0
ENCODING 960
SWIDTH 660 0
DWIDTH 11 0
BBX 9 8 1 0
BITMAP
FF80
FF80
6700
6700
6700
6700
6780
6380
ENDCHAR
STARTCHAR 2007
ENCODING 8199
SWIDTH 600 0
DWIDTH 10 0
BBX 0 0 0 0
BITMAP
ENDCHAR
STARTCHAR 2008
ENCODING 8200
SWIDTH 300 0
DWIDTH 5 0
BBX 0 0 0 0
BITMAP
ENDCHAR
STARTCHAR 200B
ENCODING 8203
SWIDTH 0 0
DWIDTH 0 0
BBX 0 0 0 0
BITMAP
ENDCHAR
STARTCHAR 2013
ENCODING 8211
SWIDTH 660 0
DWIDTH 11 0
BBX 9 2 1 4
BITMAP
FF80
FF80
ENDCHAR
STARTCHAR 2014
ENCODING 8212
SWIDTH 1080 0
DWIDTH 18 0
BBX 16 2 1 4
BITMAP
FFFF
FFFF
ENDCHAR
STARTCHAR 2018
ENCODING 8216
SWIDTH 240 0
DWIDTH 4 0
BBX 2 5 1 7
BITMAP
40
80
80
C0
C0
ENDCHAR
STARTCHAR 2019
ENCODING 8217
SWIDTH 240 0
DWIDTH 4 0
BBX 2 5 1 7
BITMAP
C0
C0
40
40
80
ENDCHAR
STARTCHAR 201A
ENCODING 8218
SWIDTH 240 0
DWIDTH 4 0
BBX 2 4 1 -2
BITMAP
C0
C0
40
80
ENDCHAR
STARTCHAR 201C
ENCODING 8220
SWIDTH 420 0
DWIDTH 7 0
BBX 6 5 1 7
BITMAP
48
98
90
DC
D8
ENDCHAR
STARTCHAR 201D
ENCODING 8221
SWIDTH 420 0
DWIDTH 7 0
BBX 6 5 1 7
BITMAP
D8
DC
4C
48
90
ENDCHAR
STARTCHAR 201E
ENCODING 8222
SWIDTH 420 0
DWIDTH 7 0
BBX 6 4 1 -2
BITMAP
D8
DC
48
90
ENDCHAR
STARTCHAR 2020
ENCODING 8224
SWIDTH 420 0
DWIDTH 7 0
BBX 6 9 0 3
BITMAP
10
10
FC
FC
10
10
10
10
10
ENDCHAR
STARTCHAR 2021
ENCODING 8225
SWIDTH 480 0
DWIDTH 8 0
BBX 6 12 1 0
BITMAP
30
30
FC
FC
30
30
30
30
FC
FC
30
30
ENDCHAR
STARTCHAR 2022
ENCODING 8226
SWIDTH 540 0
DWIDTH 9 0
BBX 7 7 1 1
BITMAP
38
7C
FE
FE
FE
7C
38
ENDCHAR
STARTCHAR 2026
ENCODING 8230
SWIDTH 900 0
DWIDTH 15 0
BBX 13 3 1 0
BITMAP
6318
E738
6318
ENDCHAR
STARTCHAR 2030
ENCODING 8240
SWIDTH 1080 0
DWIDTH 18 0
BBX 16 11 1 0
BITMAP
7060
F8C0
8980
F980
7300
0600
0CEE
0DFF
1991
31FF
30EE
ENDCHAR
STARTCHAR 2039
ENCODING 8249
SWIDTH 300 0
DWIDTH 5 0
BBX 3 6 1 2
BITMAP
60
60
C0
C0
60
60
ENDCHAR
STARTCHAR 203A
ENCODING 8250
SWIDTH 300 0
DWIDTH 5 0
BBX 3 6 1 2
BITMAP
C0
E0
60
60
E0
C0
ENDCHAR
STARTCHAR 2042
ENCODING 8258
SWIDTH 840 0
DWIDTH 14 0
BBX 12 12 1 0
BITMAP
0600
1600
1F80
0E00
0B00
0000
0000
2040
F9F0
F9F0
70E0
50A0
ENDCHAR
STARTCHAR 2044
ENCODING 8260
SWIDTH 600 0
DWIDTH 10 0
BBX 9 11 0 0
BITMAP
0180
0180
0300
0600
0400
0C00
1800
3000
3000
6000
C000
ENDCHAR
STARTCHAR 2051
ENCODING 8273
SWIDTH 420 0
DWIDTH 7 0
BBX 5 12 1 0
BITMAP
20
A8
F8
70
D8
00
00
20
F8
F8
70
50
ENDCHAR
STARTCHAR 2070
ENCODING 8304
SWIDTH 420 0
DWIDTH 7 0
BBX 5 6 1 6
BITMAP
70
D8
C8
C8
D8
78
ENDCHAR
STARTCHAR 2074
ENCODING 8308
SWIDTH 420 0
DWIDTH 7 0
BBX 6 6 1 6
BITMAP
30
70
50
D0
FC
10
ENDCHAR
STARTCHAR 2075
ENCODING 8309
SWIDTH 420 0
DWIDTH 7 0
BBX 5 6 1 6
BITMAP
78
C0
F0
58
98
F0
ENDCHAR
STARTCHAR 2076
ENCODING 8310
SWIDTH 420 0
DWIDTH 7 0
BBX 5 6 1 6
BITMAP
78
E8
F0
D8
D8
78
ENDCHAR
STARTCHAR 2077
ENCODING 8311
SWIDTH 420 0
DWIDTH 7 0
BBX 5 6 1 6
BITMAP
F8
18
30
60
60
60
ENDCHAR
STARTCHAR 2078
ENCODING 8312
SWIDTH 420 0
DWIDTH 7 0
BBX 5 6 1 6
BITMAP
70
D8
D8
70
D8
F8
ENDCHAR
STARTCHAR 2079
ENCODING 8313
SWIDTH 420 0
DWIDTH 7 0
BBX 5 6 1 6
BITMAP
70
D8
D8
F8
18
F0
ENDCHAR
STARTCHAR 2080
ENCODING 8320
SWIDTH 420 0
DWIDTH 7 0
BBX 5 6 1 -1
BITMAP
70
D8
C8
C8
D8
78
ENDCHAR
STARTCHAR 2081
ENCODING 8321
SWIDTH 300 0
DWIDTH 5 0
BBX 3 6 1 -2
BITMAP
60
E0
60
60
60
60
ENDCHAR
STARTCHAR 2082
ENCODING 8322
SWIDTH 420 0
DWIDTH 7 0
BBX 5 6 1 -2
BITMAP
F0
98
30
70
C0
F8
ENDCHAR
STARTCHAR 2083
ENCODING 8323
SWIDTH 420 0
DWIDTH 7 0
BBX 5 6 1 -2
BITMAP
F8
30
30
18
D8
70
ENDCHAR
STARTCHAR 2084
ENCODING 8324
SWIDTH 420 0
DWIDTH 7 0
BBX 6 6 1 -2
BITMAP
30
70
D0
FC
10
10
ENDCHAR
STARTCHAR 2085
ENCODING 8325
SWIDTH 420 0
DWIDTH 7 0
BBX 5 6 1 -2
BITMAP
78
C0
F8
18
D8
70
ENDCHAR
STARTCHAR 2086
ENCODING 8326
SWIDTH 420 0
DWIDTH 7 0
BBX 5 6 1 -2
BITMAP
78
C0
F8
D8
D8
70
ENDCHAR
STARTCHAR 2087
ENCODING 8327
SWIDTH 420 0
DWIDTH 7 0
BBX 5 6 1 -2
BITMAP
F8
30
30
60
60
60
ENDCHAR
STARTCHAR 2088
ENCODING 8328
SWIDTH 420 0
DWIDTH 7 0
BBX 5 6 1 -2
BITMAP
F8
D8
70
D8
D8
70
ENDCHAR
STARTCHAR 2089
ENCODING 8329
SWIDTH 420 0
DWIDTH 7 0
BBX 5 6 1 -2
BITMAP
F0
D8
D8
78
B8
F0
ENDCHAR
STARTCHAR 20AC
ENCODING 8364
SWIDTH 660 0
DWIDTH 11 0
BBX 10 11 1 0
BITMAP
0F80
1F80
3800
FF00
FF00
7000
FE00
FC00
3800
1FC0
0F80
ENDCHAR
STARTCHAR 2113
ENCODING 8467
SWIDTH 420 0
DWIDTH 7 0
BBX 7 11 0 0
BITMAP
1C
3C
36
3E
3C
3C
F8
F0
30
3C
1C
ENDCHAR
STARTCHAR 2122
ENCODING 8482
SWIDTH 900 0
DWIDTH 15 0
BBX 13 6 1 6
BITMAP
FF38
6738
67F8
67F8
66D8
66D8
ENDCHAR
STARTCHAR 2126
ENCODING 8486
SWIDTH 780 0
DWIDTH 13 0
BBX 11 12 1 0
BITMAP
1F00
7FC0
71C0
E0E0
C060
C060
C060
E0E0
71C0
3B80
FBE0
FBE0
ENDCHAR
STARTCHAR 2160
ENCODING 8544
SWIDTH 480 0
DWIDTH 8 0
BBX 7 11 1 0
BITMAP
FE
FE
30
30
30
30
30
30
30
FE
FE
ENDCHAR
STARTCHAR 2161
ENCODING 8545
SWIDTH 780 0
DWIDTH 13 0
BBX 11 11 1 0
BITMAP
FFE0
FFE0
3180
3180
3180
3180
3180
3180
3180
FFE0
FFE0
ENDCHAR
STARTCHAR 2162
ENCODING 8546
SWIDTH 1080 0
DWIDTH 18 0
BBX 16 11 1 0
BITMAP
FFFF
FFFF
319C
319C
319C
319C
319C
319C
319C
FFFF
FFFF
ENDCHAR
STARTCHAR 2163
ENCODING 8547
SWIDTH 1080 0
DWIDTH 18 0
BBX 16 11 1 0
BITMAP
FFFF
FFFF
330C
3318
3398
3198
31B8
31F0
30F0
FFFF
FFFF
ENDCHAR
STARTCHAR 2164
ENCODING 8548
SWIDTH 780 0
DWIDTH 13 0
BBX 12 11 1 0
BITMAP
FFF0
FFF0
31C0
3180
3980
1980
1B80
1F00
0F00
FFF0
FFF0
ENDCHAR
STARTCHAR 2165
ENCODING 8549
SWIDTH 1080 0
DWIDTH 18 0
BBX 16 11 1 0
BITMAP
FFFF
FFFF
31DC
319C
399C
199C
1B9C
1F1C
0F1C
FFFF
FFFF
ENDCHAR
STARTCHAR 2166
ENCODING 8550
SWIDTH 1320 0
DWIDTH 22 0
BBX 20 11 1 0
BITMAP
FFFFF0
FFFFF0
31DCC0
319CC0
399CC0
199CC0
1B9CC0
1F1CC0
0F1CC0
FFFFF0
FFFFF0
ENDCHAR
STARTCHAR 2167
ENCODING 8551
SWIDTH 1620 0
DWIDTH 27 0
BBX 25 11 1 0
BITMAP
FFFFFF80
FFFFFF80
31DCCE00
319CCE00
399CCE00
199CCE00
1B1CCE00
1F1CCE00
0F1CCE00
FFFFFF80
FFFFFF80
ENDCHAR
STARTCHAR 2168
ENCODING 8552
SWIDTH 1020 0
DWIDTH 17 0
BBX 15 11 1 0
BITMAP
FFFE
FFFE
3398
31B8
31F0
30E0
31F0
31B0
33B8
FFFE
FFFE
ENDCHAR
STARTCHAR 2169
ENCODING 8553
SWIDTH 780 0
DWIDTH 13 0
BBX 11 11 1 0
BITMAP
FFE0
FFE0
3B80
1B00
1F00
0E00
1F00
1B00
3B80
FFE0
FFE0
ENDCHAR
STARTCHAR 216C
ENCODING 8556
SWIDTH 660 0
DWIDTH 11 0
BBX 9 11 1 0
BITMAP
FC00
FC00
3000
3000
3000
3000
3180
3180
3180
FF80
FF80
ENDCHAR
STARTCHAR 216D
ENCODING 8557
SWIDTH 720 0
DWIDTH 12 0
BBX 11 11 1 0
BITMAP
1EC0
7FC0
61C0
C0C0
C000
C000
C000
E0E0
71E0
7FE0
1EE0
ENDCHAR
STARTCHAR 216E
ENCODING 8558
SWIDTH 720 0
DWIDTH 12 0
BBX 11 11 1 0
BITMAP
FF00
FF80
31C0
30C0
30E0
30E0
30E0
30C0
31C0
FF80
FF00
ENDCHAR
STARTCHAR 216F
ENCODING 8559
SWIDTH 1080 0
DWIDTH 18 0
BBX 16 11 1 0
BITMAP
F83F
F83F
3C3C
3C7C
3E6C
36EC
36CC
33CC
33CC
FBBF
F9BF
ENDCHAR
STARTCHAR 2190
ENCODING 8592
SWIDTH 1080 0
DWIDTH 18 0
BBX 17 8 0 1
BITMAP
100000
100000
300000
FFFF80
FFFF80
700000
100000
100000
ENDCHAR
STARTCHAR 2191
ENCODING 8593
SWIDTH 480 0
DWIDTH 8 0
BBX 7 15 1 -2
BITMAP
10
38
7C
FE
30
30
30
30
30
30
30
30
30
30
30
ENDCHAR
STARTCHAR 2192
ENCODING 8594
SWIDTH 1080 0
DWIDTH 18 0
BBX 17 8 0 1
BITMAP
000800
000400
000700
FFFF80
FFFF80
000700
000400
000800
ENDCHAR
STARTCHAR 2193
ENCODING 8595
SWIDTH 480 0
DWIDTH 8 0
BBX 8 16 0 -3
BITMAP
18
18
18
18
18
18
18
18
18
18
18
FF
7E
3C
38
10
ENDCHAR
STARTCHAR 2196
ENCODING 8598
SWIDTH 900 0
DWIDTH 15 0
BBX 12 12 1 0
BITMAP
F800
F000
F000
F800
9C00
0E00
0700
0380
01C0
00E0
0070
0020
ENDCHAR
STARTCHAR 2197
ENCODING 8599
SWIDTH 780 0
DWIDTH 13 0
BBX 12 12 -1 0
BITMAP
01F0
00F0
00F0
01F0
0390
0700
0E00
1C00
3800
7000
E000
4000
ENDCHAR
STARTCHAR 2198
ENCODING 8600
SWIDTH 840 0
DWIDTH 14 0
BBX 12 12 1 0
BITMAP
4000
E000
7000
3800
1C00
0E00
0700
0390
01F0
00F0
00F0
01F0
ENDCHAR
STARTCHAR 2199
ENCODING 8601
SWIDTH 720 0
DWIDTH 12 0
BBX 11 12 1 0
BITMAP
0020
0060
00C0
0180
0300
0600
0C00
9800
F000
E000
F000
F800
ENDCHAR
STARTCHAR 21A9
ENCODING 8617
SWIDTH 840 0
DWIDTH 14 0
BBX 14 10 0 1
BITMAP
01F0
01F8
000C
100C
300C
FFF8
FFF0
7000
3000
1000
ENDCHAR
STARTCHAR 21B0
ENCODING 8624
SWIDTH 780 0
DWIDTH 13 0
BBX 11 12 1 0
BITMAP
1000
3000
7000
FFE0
FFE0
7060
1060
0060
0060
0060
0060
0060
ENDCHAR
STARTCHAR 21B1
ENCODING 8625
SWIDTH 720 0
DWIDTH 12 0
BBX 11 12 1 0
BITMAP
0100
0180
01C0
FFE0
FFE0
C180
C100
C000
C000
C000
C000
C000
ENDCHAR
STARTCHAR 21B2
ENCODING 8626
SWIDTH 780 0
DWIDTH 13 0
BBX 12 12 0 0
BITMAP
0030
0030
0030
0030
0030
1030
3030
FFF0
FFF0
7000
3000
1000
ENDCHAR
STARTCHAR 21B3
ENCODING 8627
SWIDTH 840 0
DWIDTH 14 0
BBX 11 12 1 0
BITMAP
C000
C000
C000
C000
C000
C080
C0C0
FFE0
FFE0
00C0
0080
0100
ENDCHAR
STARTCHAR 21B4
ENCODING 8628
SWIDTH 780 0
DWIDTH 13 0
BBX 12 12 1 0
BITMAP
FF80
FF80
0080
0080
0080
0080
0080
0080
07F0
03E0
01C0
0080
ENDCHAR
STARTCHAR 21C6
ENCODING 8646
SWIDTH 1140 0
DWIDTH 19 0
BBX 16 14 2 -1
BITMAP
2000
2000
6000
FFFF
FFFF
6000
2000
0008
000E
FFFF
FFFF
000E
000C
0008
ENDCHAR
STARTCHAR 2202
ENCODING 8706
SWIDTH 600 0
DWIDTH 10 0
BBX 9 12 1 0
BITMAP
7C00
FE00
0700
0300
3F80
FF80
E380
C380
C300
E700
FE00
3C00
ENDCHAR
STARTCHAR 2206
ENCODING 8710
SWIDTH 720 0
DWIDTH 12 0
BBX 11 12 0 0
BITMAP
0E00
0F00
0F00
1B00
1B80
3980
3180
31C0
70C0
60E0
7FE0
FFE0
ENDCHAR
STARTCHAR 220F
ENCODING 8719
SWIDTH 660 0
DWIDTH 11 0
BBX 9 12 1 0
BITMAP
FF80
FF80
E180
E180
E180
E180
E180
E180
E180
E180
E180
E180
ENDCHAR
STARTCHAR 2211
ENCODING 8721
SWIDTH 540 0
DWIDTH 9 0
BBX 8 12 1 0
BITMAP
FF
FF
E0
70
38
1C
1C
38
70
E0
FF
FF
ENDCHAR
STARTCHAR 2212
ENCODING 8722
SWIDTH 600 0
DWIDTH 10 0
BBX 8 2 1 4
BITMAP
FF
FF
ENDCHAR
STARTCHAR 2215
ENCODING 8725
SWIDTH 420 0
DWIDTH 7 0
BBX 7 11 0 0
BITMAP
06
06
0C
0C
18
18
30
30
60
60
C0
ENDCHAR
STARTCHAR 2219
ENCODING 8729
SWIDTH 300 0
DWIDTH 5 0
BBX 3 3 1 4
BITMAP
E0
E0
E0
ENDCHAR
STARTCHAR 221A
ENCODING 8730
SWIDTH 720 0
DWIDTH 12 0
BBX 11 15 1 0
BITMAP
01E0
01E0
0180
0300
0300
0300
C600
C600
E600
6C00
6C00
7C00
3800
3800
1800
ENDCHAR
STARTCHAR 221E
ENCODING 8734
SWIDTH 840 0
DWIDTH 14 0
BBX 12 6 1 2
BITMAP
71E0
FFF0
CF30
CF30
FFF0
79E0
ENDCHAR
STARTCHAR 222B
ENCODING 8747
SWIDTH 360 0
DWIDTH 6 0
BBX 6 16 0 -4
BITMAP
1C
3C
30
30
30
30
30
30
30
30
30
30
30
30
F0
E0
ENDCHAR
STARTCHAR 2248
ENCODING 8776
SWIDTH 600 0
DWIDTH 10 0
BBX 8 6 1 1
BITMAP
70
FF
0E
00
7F
FE
ENDCHAR
STARTCHAR 2260
ENCODING 8800
SWIDTH 600 0
DWIDTH 10 0
BBX 8 8 1 1
BITMAP
06
FF
FF
18
18
FF
FF
60
ENDCHAR
STARTCHAR 2264
ENCODING 8804
SWIDTH 540 0
DWIDTH 9 0
BBX 7 8 1 1
BITMAP
06
3E
F0
F8
1E
02
FE
FE
ENDCHAR
STARTCHAR 2265
ENCODING 8805
SWIDTH 540 0
DWIDTH 9 0
BBX 7 8 1 1
BITMAP
C0
F8
1E
3E
F0
80
FE
FE
ENDCHAR
STARTCHAR 22C5
ENCODING 8901
SWIDTH 300 0
DWIDTH 5 0
BBX 3 3 1 4
BITMAP
E0
E0
E0
ENDCHAR
STARTCHAR 24C5
ENCODING 9413
SWIDTH 840 0
DWIDTH 14 0
BBX 12 12 1 0
BITMAP
1F00
31C0
6060
CF20
89B0
89B0
8F30
8830
C820
6060
31C0
1F00
ENDCHAR
STARTCHAR 25A0
ENCODING 9632
SWIDTH 900 0
DWIDTH 15 0
BBX 11 12 2 0
BITMAP
FFE0
FFE0
FFE0
FFE0
FFE0
FFE0
FFE0
FFE0
FFE0
FFE0
FFE0
FFE0
ENDCHAR
STARTCHAR 25A1
ENCODING 9633
SWIDTH 900 0
DWIDTH 15 0
BBX 11 12 2 0
BITMAP
FFE0
FFE0
C060
C060
C060
C060
C060
C060
C060
C060
FFE0
FFE0
ENDCHAR
STARTCHAR 25B2
ENCODING 9650
SWIDTH 840 0
DWIDTH 14 0
BBX 14 12 0 0
BITMAP
0200
0300
0300
0780
0FC0
0FC0
1FE0
1FE0
3FF0
7FF8
7FF8
FFFC
ENDCHAR
STARTCHAR 25B3
ENCODING 9651
SWIDTH 840 0
DWIDTH 14 0
BBX 14 12 0 0
BITMAP
0200
0300
0300
0780
0FC0
0CC0
1860
1860
3030
7038
7FF8
FFFC
ENDCHAR
STARTCHAR 25CA
ENCODING 9674
SWIDTH 600 0
DWIDTH 10 0
BBX 9 12 1 0
BITMAP
1C00
3C00
7E00
6600
E700
C380
C380
E700
6600
7E00
3C00
1C00
ENDCHAR
STARTCHAR 25CB
ENCODING 9675
SWIDTH 840 0
DWIDTH 14 0
BBX 12 12 1 0
BITMAP
1F00
3FC0
70E0
C060
C030
C030
C030
C030
C060
60E0
3FC0
1F00
ENDCHAR
STARTCHAR 25CF
ENCODING 9679
SWIDTH 840 0
DWIDTH 14 0
BBX 12 12 1 0
BITMAP
1F00
3FC0
7FE0
FFE0
FFF0
FFF0
FFF0
FFF0
FFE0
7FE0
3FC0
1F00
ENDCHAR
STARTCHAR 262E
ENCODING 9774
SWIDTH 840 0
DWIDTH 14 0
BBX 12 12 1 0
BITMAP
1F00
3FC0
66E0
C660
C630
CE30
DF30
FFF0
E6E0
66E0
3FC0
1F00
ENDCHAR
STARTCHAR 2713
ENCODING 10003
SWIDTH 960 0
DWIDTH 16 0
BBX 14 12 1 0
BITMAP
0004
000C
0018
0030
0060
00C0
C180
E300
6700
3E00
1C00
0800
ENDCHAR
STARTCHAR 2715
ENCODING 10005
SWIDTH 780 0
DWIDTH 13 0
BBX 12 12 0 0
BITMAP
4020
E070
70E0
39C0
1F80
0F00
0F00
1F80
39C0
70E0
E070
4020
ENDCHAR
STARTCHAR 2780
ENCODING 10112
SWIDTH 840 0
DWIDTH 14 0
BBX 12 12 1 0
BITMAP
1F00
39C0
6060
C620
8E30
8610
8610
8630
C620
6060
31C0
1F00
ENDCHAR
STARTCHAR 2781
ENCODING 10113
SWIDTH 840 0
DWIDTH 14 0
BBX 12 12 1 0
BITMAP
1F00
39C0
6060
CF20
9B30
8310
8E10
8830
DF20
6060
31C0
1F00
ENDCHAR
STARTCHAR 2782
ENCODING 10114
SWIDTH 840 0
DWIDTH 14 0
BBX 12 12 1 0
BITMAP
1F00
39C0
6060
DF20
8330
8610
8310
9B30
CF20
6060
39C0
1F00
ENDCHAR
STARTCHAR 2783
ENCODING 10115
SWIDTH 840 0
DWIDTH 14 0
BBX 12 12 1 0
BITMAP
1F00
39C0
6060
C620
8E30
8A30
9210
9FB0
C230
6060
31C0
1F00
ENDCHAR
STARTCHAR 2784
ENCODING 10116
SWIDTH 840 0
DWIDTH 14 0
BBX 12 12 1 0
BITMAP
1F00
31C0
6060
CF20
8830
8F10
8310
9B30
CE20
6060
39C0
1F00
ENDCHAR
STARTCHAR 2785
ENCODING 10117
SWIDTH 840 0
DWIDTH 14 0
BBX 12 12 1 0
BITMAP
1F00
39C0
6060
C720
8C30
9F10
9B10
9B30
CE20
6060
31C0
1F00
ENDCHAR
STARTCHAR 2786
ENCODING 10118
SWIDTH 840 0
DWIDTH 14 0
BBX 12 12 1 0
BITMAP
1F00
31C0
6060
DF20
8330
8610
8610
8C30
CC20
6060
31C0
1F00
ENDCHAR
STARTCHAR 2787
ENCODING 10119
SWIDTH 840 0
DWIDTH 14 0
BBX 12 12 1 0
BITMAP
1F00
39C0
6060
CF20
9B30
8F10
8B10
9930
CF20
6060
31C0
1F00
ENDCHAR
STARTCHAR 2788
ENCODING 10120
SWIDTH 840 0
DWIDTH 14 0
BBX 12 12 1 0
BITMAP
1F00
39C0
6060
CF20
9B30
9990
8F10
8330
CE20
6060
31C0
1F00
ENDCHAR
STARTCHAR E000
ENCODING 57344
SWIDTH 720 0
DWIDTH 12 0
BBX 12 12 0 0
BITMAP
1FF0
1FF0
1800
1800
1800
1800
1800
1800
FE00
7C00
3800
1000
ENDCHAR
STARTCHAR E001
ENCODING 57345
SWIDTH 1140 0
DWIDTH 19 0
BBX 17 12 1 0
BITMAP
03E000
0FE000
1C0400
180E00
301F00
303F80
FC0C00
780C00
380C00
103800
03F000
03E000
ENDCHAR
STARTCHAR E002
ENCODING 57346
SWIDTH 960 0
DWIDTH 16 0
BBX 14 12 1 0
BITMAP
1F00
3F00
7020
E030
C078
C0FC
C030
C030
E070
70E0
3FC0
1F00
ENDCHAR
STARTCHAR FB00
ENCODING 64256
SWIDTH 660 0
DWIDTH 11 0
BBX 11 12 0 0
BITMAP
1CE0
3DE0
3180
3180
FFE0
FFE0
3180
3180
3180
3180
3180
3180
ENDCHAR
STARTCHAR FB01
ENCODING 64257
SWIDTH 660 0
DWIDTH 11 0
BBX 10 12 0 0
BITMAP
1D80
3DC0
3080
3000
FF80
FF80
3180
3180
3180
3180
3180
3180
ENDCHAR
STARTCHAR FB02
ENCODING 64258
SWIDTH 660 0
DWIDTH 11 0
BBX 9 12 0 0
BITMAP
1D80
3D80
3180
3180
FF80
FF80
3180
3180
3180
3180
3180
3180
ENDCHAR
STARTCHAR FB03
ENCODING 64259
SWIDTH 960 0
DWIDTH 16 0
BBX 15 12 0 0
BITMAP
1CE6
3DEE
3184
3180
FFFE
FFFE
3186
3186
3186
3186
3186
3186
ENDCHAR
STARTCHAR FB04
ENCODING 64260
SWIDTH 960 0
DWIDTH 16 0
BBX 15 12 0 0
BITMAP
1CE6
3DE6
3186
3186
FFFE
FFFE
3186
3186
3186
3186
3186
3186
ENDCHAR
STARTCHAR FEFF
ENCODING 65279
SWIDTH 0 0
DWIDTH 0 0
BBX 0 0 0 0
BITMAP
ENDCHAR
ENDFONT
